<?xml version="1.0" standalone="no"?>
<!DOCTYPE svg PUBLIC "-//W3C//DTD SVG 20010904//EN"
 "http://www.w3.org/TR/2001/REC-SVG-20010904/DTD/svg10.dtd">
<svg version="1.0" xmlns="http://www.w3.org/2000/svg"
 width="700.000000pt" height="700.000000pt" viewBox="0 0 700.000000 700.000000"
 preserveAspectRatio="xMidYMid meet">
<metadata>
Created by potrace 1.14, written by Peter Selinger 2001-2017
</metadata>
<g transform="translate(0.000000,700.000000) scale(0.100000,-0.100000)"
fill="#000000" stroke="none">
<path d="M3200 6990 c-382 -38 -707 -117 -1032 -251 -925 -380 -1652 -1152
-1979 -2098 -76 -219 -132 -461 -165 -711 -20 -146 -26 -586 -11 -750 56 -619
288 -1236 655 -1740 316 -434 729 -790 1207 -1041 362 -191 826 -336 1195
-374 36 -4 79 -9 95 -12 17 -2 147 -6 290 -8 230 -3 341 1 473 19 20 3 57 8
82 11 239 33 525 110 780 210 1058 418 1853 1334 2115 2440 18 77 36 160 40
185 4 25 9 54 11 65 34 177 53 647 34 840 -4 44 -11 109 -14 145 -4 36 -9 72
-11 80 -2 8 -7 35 -10 60 -29 207 -112 507 -205 740 -233 584 -640 1116 -1145
1496 -76 58 -190 137 -227 159 -9 5 -50 30 -90 55 -341 208 -857 395 -1228
445 -19 3 -46 7 -60 10 -13 2 -54 7 -90 11 -36 3 -78 8 -95 11 -52 8 -536 11
-615 3z m615 -223 c17 -3 57 -8 90 -11 403 -43 875 -202 1245 -419 96 -57 267
-170 321 -213 20 -16 51 -40 69 -54 18 -14 38 -29 44 -35 6 -5 40 -35 75 -65
312 -266 618 -666 791 -1035 130 -276 129 -267 8 -149 -86 84 -257 224 -273
224 -3 0 -30 16 -62 37 -31 20 -102 58 -158 84 -380 182 -825 222 -1235 112
-246 -66 -492 -194 -690 -358 -82 -68 -208 -197 -255 -260 -16 -22 -33 -42
-36 -45 -14 -11 -119 -180 -156 -250 -58 -111 -127 -293 -149 -391 -2 -11 -6
-29 -9 -41 -3 -13 -7 -36 -10 -53 -3 -16 -7 -41 -10 -55 -11 -57 -14 -89 -20
-165 l-6 -80 -46 -40 c-191 -167 -453 -300 -701 -356 -114 -25 -228 -36 -370
-33 -733 13 -1353 519 -1519 1239 -31 136 -44 358 -29 505 34 344 188 676 431
929 423 441 977 755 1590 902 146 34 346 66 480 75 50 4 92 8 94 10 6 5 459
-3 496 -9z m1565 -1692 c371 -46 706 -215 962 -484 215 -226 345 -477 410
-791 33 -159 32 -476 -2 -735 -6 -44 -15 -102 -20 -130 -5 -27 -11 -61 -14
-75 -9 -56 -49 -212 -82 -323 -29 -99 -117 -333 -128 -345 -2 -2 -4 46 -5 105
-1 213 -26 376 -86 560 -39 117 -49 141 -112 266 -193 385 -534 695 -942 857
-99 39 -250 82 -336 96 -22 3 -43 8 -46 10 -25 15 -333 23 -459 11 -79 -8 -80
-8 -205 -33 -193 -39 -440 -143 -609 -257 -39 -25 -72 -45 -74 -43 -9 10 52
226 96 336 37 93 117 242 164 305 301 405 677 621 1178 677 43 5 253 1 310 -7z
m-4882 -382 c1 -71 3 -141 6 -158 3 -16 8 -52 10 -80 7 -66 12 -92 41 -205 99
-394 332 -743 664 -993 219 -165 463 -273 751 -333 129 -26 372 -36 520 -20
268 28 565 132 780 273 109 71 101 68 96 41 -50 -232 -116 -400 -224 -568
-380 -591 -1078 -860 -1757 -678 -608 163 -1086 716 -1153 1333 -14 123 -6
475 13 605 31 204 79 425 129 583 21 66 118 326 122 327 1 0 2 -57 2 -127z
m4392 -817 c265 -30 541 -142 761 -308 302 -227 508 -546 596 -923 60 -257 43
-585 -44 -845 -79 -238 -201 -429 -398 -625 -145 -145 -153 -152 -270 -246
-164 -131 -362 -258 -556 -355 -107 -53 -264 -124 -277 -124 -3 0 35 42 84 93
105 107 145 156 208 252 25 39 50 75 55 81 45 54 188 404 204 500 3 16 10 52
16 79 63 293 40 634 -61 930 -170 500 -553 902 -1047 1099 -96 38 -304 96
-345 96 -58 0 -24 31 129 115 160 87 397 163 565 180 36 4 66 8 67 9 6 5 254
-2 313 -8z m-1015 -531 c528 -134 943 -510 1123 -1020 87 -244 110 -551 62
-804 -22 -115 -39 -177 -85 -296 -166 -429 -536 -780 -977 -925 -179 -59 -281
-74 -508 -74 -214 -1 -282 4 -459 30 -253 37 -467 92 -693 178 -169 64 -168
63 -22 65 71 0 140 3 154 5 14 1 50 6 80 10 91 12 103 15 201 40 321 84 596
242 833 481 376 378 562 902 512 1445 -10 110 -50 310 -76 375 -4 11 -22 58
-40 105 -37 97 -115 249 -169 330 -50 75 -53 80 -44 80 4 0 53 -12 108 -25z
m-229 -206 c158 -243 244 -556 238 -866 -2 -129 -5 -159 -35 -307 -79 -391
-327 -755 -669 -984 -544 -363 -1256 -353 -1793 25 -90 63 -298 262 -388 372
-24 29 -49 59 -54 65 -23 25 -154 206 -196 271 -98 150 -192 328 -268 504
l-41 95 97 -95 c128 -123 146 -138 260 -215 203 -136 470 -245 688 -280 28 -4
57 -9 65 -10 8 -2 56 -6 105 -10 537 -43 1038 139 1416 515 242 240 397 509
480 829 16 62 29 124 29 138 0 40 18 27 66 -47z"/>
</g>
</svg>
